<svg xmlns="http://www.w3.org/2000/svg" viewBox="0 0 120 120" fill="none">
  <defs>
    <linearGradient id="circleGrad" x1="16" y1="104" x2="80" y2="40" gradientUnits="userSpaceOnUse">
      <stop offset="0%" stop-color="#1d4ed8"/>
      <stop offset="100%" stop-color="#8b5cf6"/>
    </linearGradient>

    <linearGradient id="arrowGrad" x1="32" y1="88" x2="88" y2="32" gradientUnits="userSpaceOnUse">
      <stop offset="0%" stop-color="#2563eb"/>
      <stop offset="100%" stop-color="#f97316"/>
    </linearGradient>

    <filter id="shadow" x="-30%" y="-30%" width="160%" height="160%">
      <feDropShadow dx="0" dy="4" stdDeviation="4" flood-color="#000000" flood-opacity="0.15"/>
    </filter>

    <mask id="cutout">
      <rect x="0" y="0" width="120" height="120" fill="white" />
      <path d="M 48 72 L 88 32 L 88 60 M 88 32 L 60 32" stroke="black" stroke-width="26" stroke-linecap="round" stroke-linejoin="round" />
    </mask>
  </defs>

  <circle cx="48" cy="72" r="32" stroke="url(#circleGrad)" stroke-width="14" mask="url(#cutout)" />

  <g filter="url(#shadow)">
    <path d="M 32 88 L 88 32 L 88 60 M 88 32 L 60 32" stroke="url(#arrowGrad)" stroke-width="14" stroke-linecap="round" stroke-linejoin="round" />
    <circle cx="88" cy="32" r="6" fill="#FFFFFF" />
    <circle cx="32" cy="88" r="5" fill="#1d4ed8" />
    <circle cx="32" cy="88" r="2.5" fill="#FFFFFF" />
  </g>

  <!-- Data point decorations -->
  <circle cx="20" cy="35" r="3" fill="#8b5cf6" opacity="0.6" />
  <circle cx="85" cy="95" r="4.5" fill="#2563eb" opacity="0.5" />
  <circle cx="102" cy="55" r="2.5" fill="#f97316" opacity="0.7" />
  <circle cx="28" cy="18" r="2" fill="#1d4ed8" opacity="0.5" />
</svg>
